<?xml version="1.0" encoding="UTF-8"?>
<svg width="48px" height="48px" viewBox="0 0 48 48" version="1.1" xmlns="http://www.w3.org/2000/svg" xmlns:xlink="http://www.w3.org/1999/xlink">
    <title>Artboard Copy 5@2x</title>
    <g id="Artboard-Copy-5" stroke="none" stroke-width="1" fill="none" fill-rule="evenodd">
        <g id="Group-5" fill="#1785FB">
            <path d="M10.2555408,-4.14336123e-16 L37.7444592,4.14336123e-16 C41.3105342,-2.4074122e-16 42.6036791,0.371302445 43.9073828,1.06853082 C45.2110865,1.76575919 46.2342408,2.78891348 46.9314692,4.09261719 C47.6286976,5.39632089 48,6.68946584 48,10.2555408 L48,37.7444592 C48,41.3105342 47.6286976,42.6036791 46.9314692,43.9073828 C46.2342408,45.2110865 45.2110865,46.2342408 43.9073828,46.9314692 C42.6036791,47.6286976 41.3105342,48 37.7444592,48 L10.2555408,48 C6.68946584,48 5.39632089,47.6286976 4.09261719,46.9314692 C2.78891348,46.2342408 1.76575919,45.2110865 1.06853082,43.9073828 C0.371302445,42.6036791 1.60494146e-16,41.3105342 -2.76224082e-16,37.7444592 L2.76224082e-16,10.2555408 C-1.60494146e-16,6.68946584 0.371302445,5.39632089 1.06853082,4.09261719 C1.76575919,2.78891348 2.78891348,1.76575919 4.09261719,1.06853082 C5.39632089,0.371302445 6.68946584,2.4074122e-16 10.2555408,-4.14336123e-16 Z" id="Img-Copy-8"></path>
        </g>
        <g id="flick-horizontal-2-copy-9" transform="translate(6.000000, 6.000000)">
            <polygon id="Frame_-_24px" points="0 0 36 0 36 36 0 36"></polygon>
            <path d="M28.6066017,5.89339828 C34.4644661,11.7512627 34.4644661,21.2487373 28.6066017,27.1066017 L26.4852814,24.9852814 C31.1715729,20.2989899 31.1715729,12.7010101 26.4852814,8.01471863 C21.7989899,3.32842712 14.2010101,3.32842712 9.51471863,8.01471863 C4.82842712,12.7010101 4.82842712,20.2989899 9.51471863,24.9852814 L7.39339828,27.1066017 C1.53553391,21.2487373 1.53553391,11.7512627 7.39339828,5.89339828 C13.2512627,0.035533906 22.7487373,0.035533906 28.6066017,5.89339828 Z" id="Path" fill="#FFFFFF"></path>
            <g id="Group-6" transform="translate(19.212053, 13.692483) rotate(-345.000000) translate(-19.212053, -13.692483) translate(9.212053, 7.692483)" fill="#FFFFFF" fill-rule="nonzero">
                <path d="M7.08099146,4.37119431 C7.31416427,4.82414749 7.65925444,5.21006157 8.07971978,5.49239436 L5.6722845,7.63518826 C5.44037193,7.18201459 5.09657206,6.79558824 4.67732853,6.51235288 Z M12.4200491,4.36917102 L14.8266973,6.50963779 C14.406871,6.79228019 14.0624078,7.17827963 13.8297776,7.63116628 L11.4218322,5.49135154 C11.8422204,5.20869095 12.1871495,4.82244062 12.4200491,4.36917102 Z" id="Combined-Shape"></path>
                <path d="M16.5,6 C18.1568543,6 19.5,7.34314575 19.5,9 C19.5,10.6568542 18.1568543,12 16.5,12 C14.8431458,12 13.5,10.6568542 13.5,9 C13.5,7.34314575 14.8431458,6 16.5,6 Z M16.5,7.5 C15.6715729,7.5 15,8.17157287 15,9 C15,9.82842713 15.6715729,10.5 16.5,10.5 C17.3284271,10.5 18,9.82842713 18,9 C18,8.17157287 17.3284271,7.5 16.5,7.5 Z" id="Combined-Shape-path-Copy-6"></path>
                <path d="M9.75,-4.26325641e-14 C11.4068543,-4.26325641e-14 12.75,1.34314575 12.75,3 C12.75,4.65685425 11.4068543,6 9.75,6 C8.09314575,6 6.75,4.65685425 6.75,3 C6.75,1.34314575 8.09314575,-4.26325641e-14 9.75,-4.26325641e-14 Z M9.75,1.5 C8.92157287,1.5 8.25,2.17157287 8.25,3 C8.25,3.82842713 8.92157287,4.5 9.75,4.5 C10.5784271,4.5 11.25,3.82842713 11.25,3 C11.25,2.17157287 10.5784271,1.5 9.75,1.5 Z" id="Shape-path"></path>
                <path d="M3,6 C4.65685425,6 6,7.34314575 6,9 C6,10.6568542 4.65685425,12 3,12 C1.34314575,12 3.41060513e-13,10.6568542 3.41060513e-13,9 C3.41060513e-13,7.34314575 1.34314575,6 3,6 Z M3,7.5 C2.17157287,7.5 1.5,8.17157287 1.5,9 C1.5,9.82842713 2.17157287,10.5 3,10.5 C3.82842713,10.5 4.5,9.82842713 4.5,9 C4.5,8.17157287 3.82842713,7.5 3,7.5 Z" id="Shape-path"></path>
            </g>
            <g id="Line_Icons" transform="translate(10.500000, 19.500000)" fill="#FFFFFF" fill-rule="nonzero">
                <path d="M13.974,6.078 L10.5,4.9185 L10.5,1.5 C10.5,0.671572875 9.82842712,0 9,0 L4.5,0 C3.67157288,0 3,0.671572875 3,1.5 L3,7.5 L1.5,7.5 C0.947172434,7.50028558 0.439313041,7.80462656 0.178377845,8.29199831 C-0.0825573521,8.77937005 -0.0542665861,9.37076183 0.252,9.831 L3.252,14.331 C3.52994303,14.7486756 3.99829772,14.9997407 4.5,15 L13.5,15 C14.3284271,15 15.0000004,14.3284271 15.0000004,13.5 L15.0000004,7.5 C15.0004423,6.8543398 14.5868703,6.28114349 13.974,6.078 L13.974,6.078 Z M12,12 L5.3025,12 L4.302,10.5 L4.5,10.5 C5.32842712,10.5 6,9.82842712 6,9 L6,3 L7.5,3 L7.5,6 C7.49984446,6.64591112 7.91318587,7.2193921 8.526,7.4235 L12,8.5815 L12,12 Z" id="Shape"></path>
            </g>
        </g>
    </g>
</svg>