<?xml version="1.0" encoding="UTF-8"?>
<svg width="48px" height="48px" viewBox="0 0 48 48" version="1.1" xmlns="http://www.w3.org/2000/svg" xmlns:xlink="http://www.w3.org/1999/xlink">
    <title>flick-horizontal-2 copy 9@2x</title>
    <g id="Page-1" stroke="none" stroke-width="1" fill="none" fill-rule="evenodd">
        <g id="flick-horizontal-2-copy-9">
            <polygon id="Frame_-_24px" points="0 0 48 0 48 48 0 48"></polygon>
            <path d="M38.1421356,7.85786438 C45.9526215,15.6683502 45.9526215,28.3316498 38.1421356,36.1421356 L35.3137085,33.3137085 C41.5620972,27.0653198 41.5620972,16.9346802 35.3137085,10.6862915 C29.0653198,4.43790283 18.9346802,4.43790283 12.6862915,10.6862915 C6.43790283,16.9346802 6.43790283,27.0653198 12.6862915,33.3137085 L9.85786438,36.1421356 C2.04737854,28.3316498 2.04737854,15.6683502 9.85786438,7.85786438 C17.6683502,0.0473785414 30.3316498,0.0473785414 38.1421356,7.85786438 Z" id="Path" fill="#FFFFFF"></path>
            <g id="Group-6" transform="translate(25.294095, 18.170371) rotate(-345.000000) translate(-25.294095, -18.170371) translate(12.294095, 10.170371)" fill="#FFFFFF" fill-rule="nonzero">
                <path d="M9.44218535,5.82993532 C9.75296033,6.43293479 10.2125318,6.94673245 10.7723637,7.3227922 L7.56335795,10.1808607 C7.25418389,9.57645657 6.79575475,9.06106573 6.23668927,8.68330692 Z M16.5598742,5.82593371 L19.7693441,8.67923817 C19.209388,9.05611966 18.7499536,9.57089054 18.4397035,10.1748884 L15.2293184,7.32166164 C15.7896263,6.94487077 16.2493824,6.43005731 16.5598742,5.82593371 Z" id="Combined-Shape"></path>
                <path d="M22,8 C24.209139,8 26,9.790861 26,12 C26,14.209139 24.209139,16 22,16 C19.790861,16 18,14.209139 18,12 C18,9.790861 19.790861,8 22,8 Z M22,10 C20.8954305,10 20,10.8954305 20,12 C20,13.1045695 20.8954305,14 22,14 C23.1045695,14 24,13.1045695 24,12 C24,10.8954305 23.1045695,10 22,10 Z" id="Combined-Shape-path-Copy-6"></path>
                <path d="M13,-5.68434189e-14 C15.209139,-5.68434189e-14 17,1.790861 17,4 C17,6.209139 15.209139,8 13,8 C10.790861,8 9,6.209139 9,4 C9,1.790861 10.790861,-5.68434189e-14 13,-5.68434189e-14 Z M13,2 C11.8954305,2 11,2.8954305 11,4 C11,5.1045695 11.8954305,6 13,6 C14.1045695,6 15,5.1045695 15,4 C15,2.8954305 14.1045695,2 13,2 Z" id="Shape-path"></path>
                <path d="M4,8 C6.209139,8 8,9.790861 8,12 C8,14.209139 6.209139,16 4,16 C1.790861,16 4.54747351e-13,14.209139 4.54747351e-13,12 C4.54747351e-13,9.790861 1.790861,8 4,8 Z M4,10 C2.8954305,10 2,10.8954305 2,12 C2,13.1045695 2.8954305,14 4,14 C5.1045695,14 6,13.1045695 6,12 C6,10.8954305 5.1045695,10 4,10 Z" id="Shape-path"></path>
            </g>
            <g id="Line_Icons" transform="translate(14.000000, 26.000000)" fill="#FFFFFF" fill-rule="nonzero">
                <path d="M18.632,8.104 L14,6.558 L14,2 C14,0.8954305 13.1045695,0 12,0 L6,0 C4.8954305,0 4,0.8954305 4,2 L4,10 L2,10 C1.26289658,10.0003808 0.585750722,10.4061687 0.237837126,11.0559977 C-0.110076469,11.7058267 -0.0723554481,12.4943491 0.336,13.108 L4.336,19.108 C4.70659071,19.6649008 5.33106363,19.9996543 6,20 L18,20 C19.1045695,20 20.0000005,19.1045695 20.0000005,18 L20.0000005,10 C20.0005898,9.13911973 19.4491604,8.37485798 18.632,8.104 L18.632,8.104 Z M16,16 L7.07,16 L5.736,14 L6,14 C7.1045695,14 8,13.1045695 8,12 L8,4 L10,4 L10,8 C9.99979262,8.86121482 10.5509145,9.62585613 11.368,9.898 L16,11.442 L16,16 Z" id="Shape"></path>
            </g>
        </g>
    </g>
</svg>